<svg width="619" height="572" viewBox="0 0 619 572" fill="none" xmlns="http://www.w3.org/2000/svg">
<path d="M-93.8119 8.85163C-93.3269 8.46521 -94.5922 10.3818 -94.7735 10.5403C-96.0472 11.654 -97.1687 12.8493 -98.1778 14.1016C-100.369 16.821 -102.027 19.8087 -103.341 22.9548C-101.388 17.6672 -98.6459 12.7029 -93.8119 8.85163ZM23.875 250.428C47.6241 273.187 75.3492 295.664 103.887 318.516C137.024 345.05 170.899 371.576 207.412 397.851C245.266 425.09 285.983 452.222 330.087 477.529C360.755 495.127 393.264 511.915 426.427 526.105C491.248 553.841 560.811 570.733 589.176 556.436C602.649 549.645 605.931 536.502 606.194 523.31C607.307 467.59 543.156 386.56 458.492 309.857C544.935 387.854 614.041 469.233 618.016 528.04C618.999 542.582 616.282 556.716 603.148 564.613C575.459 581.263 503.284 565.846 434.03 537.887C399.144 523.803 364.594 506.598 331.925 488.465C287.537 463.827 246.083 436.863 208.46 409.874C130.244 353.767 78.997 305.856 23.875 250.428ZM387.397 249.854C357.1 225.83 324.908 201.927 291.851 178.159C324.911 201.928 357.117 225.829 387.397 249.854ZM225.325 131.872C220.674 128.753 216.002 125.641 211.304 122.534C216.002 125.641 220.674 128.753 225.325 131.872ZM159.11 89.2977C87.8375 45.8238 -9.12522 -5.10839 -67.7384 1.23325C-78.4629 2.39359 -86.6299 5.34188 -93.141 9.2285C-93.6752 9.54737 -92.2961 7.9743 -92.0187 7.82085C-90.7972 7.14518 -89.5065 6.50808 -88.1441 5.91662C-83.6607 3.97021 -78.5529 2.38976 -72.5243 1.4569C-54.2204 -1.37545 -28.4274 1.69372 1.94022 11.553C55.8754 29.0639 111.51 60.2595 159.11 89.2977Z" fill="#8211B7"/>
</svg>
