<svg width="1031" height="524" viewBox="0 0 1031 524" fill="none" xmlns="http://www.w3.org/2000/svg">
<path d="M1022.46 79.6848C1029.63 102.92 1021.65 130.688 998.753 161.689C975.937 192.58 938.981 225.705 890.448 259.023C793.439 325.621 651.243 392.266 486.862 442.992C322.482 493.719 167.458 518.794 49.789 518.445C-9.07988 518.27 -58.2754 511.731 -94.5316 499.069C-130.916 486.362 -153.157 467.919 -160.327 444.685C-167.497 421.45 -159.517 393.681 -136.62 362.681C-113.804 331.79 -76.8487 298.665 -28.3155 265.346C68.694 198.749 210.89 132.104 375.27 81.3771C539.651 30.6504 694.675 5.57529 812.344 5.92455C871.213 6.09929 920.408 12.6386 956.664 25.3005C993.049 38.0073 1015.29 56.4501 1022.46 79.6848Z" stroke="#9815D6" stroke-width="11"/>
</svg>
